<?xml version="1.0" encoding="utf-8"?>
<!-- Generator: Adobe Illustrator 28.3.0, SVG Export Plug-In . SVG Version: 6.00 Build 0)  -->
<svg version="1.1" xmlns="http://www.w3.org/2000/svg" xmlns:xlink="http://www.w3.org/1999/xlink" x="0px" y="0px"
	 viewBox="0 0 900 500" style="enable-background:new 0 0 900 500;" xml:space="preserve">
<style type="text/css">
	.st0{fill:none;}
	.st1{fill:#00E2B7;}
	.st2{fill:#4F4F4F;}
	.st3{fill:#D2D2D2;}
	.st4{fill:none;stroke:#00E2B7;stroke-width:1.1;stroke-miterlimit:10;}
	.st5{fill:#339EFF;}
	
		.st6{clip-path:url(#SVGID_00000062906696613246317210000002510671623163779460_);fill:none;stroke:#4F4F4F;stroke-width:1.5;stroke-miterlimit:10;}
	
		.st7{clip-path:url(#SVGID_00000164477086180566837520000002654350052900760495_);fill:none;stroke:#4F4F4F;stroke-width:1.5;stroke-miterlimit:10;}
	.st8{fill:#C6C6C6;}
	.st9{clip-path:url(#SVGID_00000036966216027675355890000001339516795424701588_);fill:none;stroke:#339EFF;stroke-miterlimit:10;}
	.st10{clip-path:url(#SVGID_00000129206787984443485970000017624640857191320457_);fill:none;stroke:#3291F0;stroke-miterlimit:10;}
	.st11{fill:#00D8AE;}
	.st12{fill:none;stroke:#339EFF;stroke-width:1.1;stroke-miterlimit:10;}
	.st13{fill:#8A8A8A;}
	.st14{fill:none;stroke:#339EFF;stroke-width:1.2;stroke-linejoin:round;stroke-miterlimit:10;}
	.st15{fill:none;stroke:#00E2B7;stroke-width:1.2;stroke-linejoin:round;stroke-miterlimit:10;}
	.st16{fill:none;stroke:#339EFF;stroke-width:1.5;stroke-linejoin:round;stroke-miterlimit:10;}
	.st17{fill:none;stroke:#00E2B7;stroke-width:1.5;stroke-linejoin:round;stroke-miterlimit:10;}
	.st18{fill:none;stroke:#4F4F4F;stroke-miterlimit:10;}
	.st19{fill:none;stroke:#339EFF;stroke-width:1.2;stroke-miterlimit:10;}
</style>
<g id="layerOrder">
	<rect x="728.5" y="200" class="st0" width="44" height="28"/>
	<rect x="628.5" y="200" class="st0" width="44" height="28"/>
	<rect x="528.5" y="200" class="st0" width="44" height="28"/>
	<g>
		<rect x="838" y="208" class="st1" width="1" height="1"/>
		<rect x="837" y="209" class="st1" width="1" height="1"/>
		<polygon class="st1" points="841,207 841,206 840,206 840,207 839,207 839,208 840,208 840,222 840,223 844,223 844,222 841,222 
			841,208 842,208 842,207 		"/>
		<rect x="842" y="208" class="st1" width="1" height="1"/>
		<rect x="843" y="209" class="st1" width="1" height="1"/>
		<rect x="862" y="220" class="st1" width="1" height="1"/>
		<rect x="863" y="219" class="st1" width="1" height="1"/>
		<rect x="858" y="220" class="st1" width="1" height="1"/>
		<rect x="857" y="219" class="st1" width="1" height="1"/>
		<polygon class="st1" points="861,207 861,206 857,206 857,207 860,207 860,221 859,221 859,222 860,222 860,223 861,223 861,222 
			862,222 862,221 861,221 		"/>
		<rect x="850" y="211" class="st2" width="2" height="2"/>
		<rect x="850" y="206" class="st2" width="2" height="2"/>
		<rect x="850" y="216" class="st2" width="2" height="2"/>
		<rect x="850" y="221" class="st2" width="2" height="2"/>
	</g>
	<rect x="828.5" y="200" class="st0" width="44" height="28"/>
</g>
<g id="layerTrim">
	<g>
		<rect x="528" y="159" class="st2" width="11" height="1"/>
		<rect x="542" y="159" class="st3" width="31" height="1"/>
		<polygon class="st1" points="536,154 535,154 535,155 538,158 539,158 539,157 		"/>
		<polygon class="st1" points="543,161 542,161 542,162 545,165 546,165 546,164 		"/>
		<polygon class="st1" points="546,155 546,154 545,154 542,157 542,158 543,158 		"/>
		<polygon class="st1" points="539,162 539,161 538,161 535,164 535,165 536,165 		"/>
	</g>
	<g>
		<rect x="762" y="159" class="st2" width="11" height="1"/>
		<rect x="742" y="159" class="st3" width="17" height="1"/>
		<polygon class="st1" points="765,154 766,154 766,155 763,158 762,158 762,157 		"/>
		<polygon class="st1" points="758,161 759,161 759,162 756,165 755,165 755,164 		"/>
		<polygon class="st1" points="755,155 755,154 756,154 759,157 759,158 758,158 		"/>
		<polygon class="st1" points="762,162 762,161 763,161 766,164 766,165 765,165 		"/>
		<polygon class="st1" points="745,154 746,154 746,155 743,158 742,158 742,157 		"/>
		<polygon class="st1" points="738,161 739,161 739,162 736,165 735,165 735,164 		"/>
		<polygon class="st1" points="735,155 735,154 736,154 739,157 739,158 738,158 		"/>
		<polygon class="st1" points="742,162 742,161 743,161 746,164 746,165 745,165 		"/>
		<rect x="728" y="159" class="st2" width="11" height="1"/>
	</g>
	<g>
		<rect x="662" y="159" class="st2" width="11" height="1"/>
		<rect x="628" y="159" class="st3" width="31" height="1"/>
		<polygon class="st1" points="665,154 666,154 666,155 663,158 662,158 662,157 		"/>
		<polygon class="st1" points="658,161 659,161 659,162 656,165 655,165 655,164 		"/>
		<polygon class="st1" points="655,155 655,154 656,154 659,157 659,158 658,158 		"/>
		<polygon class="st1" points="662,162 662,161 663,161 666,164 666,165 665,165 		"/>
	</g>
	<rect x="520" y="150" class="st0" width="61" height="28"/>
	<rect x="620" y="150" class="st0" width="61" height="28"/>
	<rect x="720" y="150" class="st0" width="61" height="28"/>
</g>
<g id="layerStretch">
	<rect x="520" y="101" class="st0" width="61" height="26"/>
	<rect x="620" y="101" class="st0" width="61" height="26"/>
	<rect x="720" y="101" class="st0" width="61" height="26"/>
	<g>
		<rect x="755" y="91" class="st1" width="1" height="46"/>
		<rect x="741" y="107" class="st3" width="13" height="1"/>
		<rect x="757" y="107" class="st3" width="7" height="1"/>
		<rect x="746" y="112" class="st3" width="8" height="1"/>
		<rect x="757" y="112" class="st3" width="2" height="1"/>
	</g>
	<g>
		<rect x="533" y="106" class="st3" width="22" height="1"/>
		<rect x="537" y="112" class="st3" width="13" height="1"/>
	</g>
	<g>
		<rect x="646" y="106" class="st3" width="22" height="1"/>
		<rect x="651" y="112" class="st3" width="13" height="1"/>
	</g>
</g>
<g id="layerStagger">
	<g>
		<rect x="635" y="68" class="st3" width="15" height="1"/>
		<rect x="643" y="63" class="st3" width="15" height="1"/>
		<rect x="651" y="58" class="st3" width="15" height="1"/>
	</g>
	<g>
		<rect x="535" y="58" class="st3" width="15" height="1"/>
		<rect x="543" y="63" class="st3" width="15" height="1"/>
		<rect x="551" y="68" class="st3" width="15" height="1"/>
	</g>
	<g>
		<rect x="751" y="58" class="st3" width="15" height="1"/>
		<rect x="735" y="63" class="st3" width="15" height="1"/>
		<rect x="743" y="68" class="st3" width="15" height="1"/>
	</g>
	<rect x="529" y="50" class="st0" width="43" height="27"/>
	<rect x="629" y="50" class="st0" width="43" height="27"/>
	<rect x="729" y="50" class="st0" width="43" height="27"/>
	<rect x="825" y="50" class="st0" width="50" height="27"/>
	<g>
		<g>
			<rect x="957" y="59" class="st3" width="12" height="1"/>
		</g>
		<g>
			<rect x="948" y="64" class="st3" width="11" height="1"/>
		</g>
		<g>
			<rect x="953" y="69" class="st3" width="11" height="1"/>
		</g>
		<g>
			<path class="st1" d="M941,63h-8c-0.6,0-1,0.4-1,1v8h10v-8C942,63.4,941.6,63,941,63z M938,69.5h-2v-4h2V69.5z"/>
		</g>
		<path class="st4" d="M939.5,63.8V60c0-1.4-1.1-2.5-2.5-2.5l0,0c-1.4,0-2.5,1.1-2.5,2.5v3.7"/>
	</g>
	<rect x="925" y="50" class="st0" width="50" height="27"/>
	<g>
		<rect x="848" y="58" class="st3" width="12" height="1"/>
		<rect x="839" y="63" class="st3" width="11" height="1"/>
		<rect x="844" y="68" class="st3" width="11" height="1"/>
		<polygon class="st1" points="838,55 838,54 834,54 834,73 838,73 838,72 835,72 835,55 		"/>
		<polygon class="st1" points="862,54 862,55 865,55 865,72 862,72 862,73 866,73 866,54 		"/>
	</g>
</g>
<g id="layerAlign">
	<rect x="528" y="2" class="st0" width="45" height="23"/>
	<g>
		<rect x="539" y="-3" class="st1" width="1" height="10"/>
		<rect x="539" y="10" class="st1" width="1" height="2"/>
		<rect x="539" y="15" class="st1" width="1" height="2"/>
		<rect x="539" y="20" class="st1" width="1" height="10"/>
		<rect x="539" y="8" class="st3" width="22" height="1"/>
		<rect x="539" y="13" class="st3" width="7" height="1"/>
		<rect x="539" y="18" class="st3" width="17" height="1"/>
	</g>
	<rect x="628" y="2" class="st0" width="44" height="23"/>
	<g>
		<rect x="660" y="-3" class="st1" width="1" height="10"/>
		<rect x="660" y="10" class="st1" width="1" height="2"/>
		<rect x="660" y="15" class="st1" width="1" height="2"/>
		<rect x="660" y="20" class="st1" width="1" height="10"/>
		<rect x="639" y="8" class="st3" width="22" height="1"/>
		<rect x="654" y="13" class="st3" width="7" height="1"/>
		<rect x="644" y="18" class="st3" width="17" height="1"/>
	</g>
	<rect x="728" y="2" class="st0" width="45" height="23"/>
	<g>
		<rect x="740" y="8" class="st3" width="22" height="1"/>
		<rect x="740" y="13" class="st3" width="7" height="1"/>
		<rect x="740" y="18" class="st3" width="17" height="1"/>
	</g>
	<rect x="828" y="2" class="st0" width="45" height="23"/>
	<g>
		<rect x="839" y="8" class="st3" width="22" height="1"/>
		<rect x="854" y="13" class="st3" width="7" height="1"/>
		<rect x="844" y="18" class="st3" width="17" height="1"/>
	</g>
</g>
<g id="keyInterpolation">
	<g>
		<circle class="st3" cx="174.5" cy="364" r="6"/>
	</g>
	<g>
		<path class="st3" d="M72.8,365.5l-4.6,4.7c-0.5,0.5-0.1,1.3,0.5,1.3h10.5c0.7,0,1-0.8,0.5-1.3l-5.2-5.2l5.2-5.2
			c0.5-0.5,0.1-1.3-0.5-1.3H68.8c-0.7,0-1,0.8-0.5,1.3l4.7,4.7C73.2,364.7,73.2,365.3,72.8,365.5z"/>
	</g>
	<g>
		<path class="st3" d="M129.5,369.5h-11v-11h11V369.5z"/>
	</g>
	<g>
		<path class="st3" d="M25,370.2l-6.2-6.2l6.2-6.2l6.2,6.2L25,370.2z"/>
	</g>
	<rect x="12.5" y="347.5" transform="matrix(-1.836970e-16 1 -1 -1.836970e-16 388.5 339.5)" class="st0" width="24" height="33"/>
	<rect x="62.5" y="347.5" transform="matrix(-1.836970e-16 1 -1 -1.836970e-16 438.5 289.5)" class="st0" width="24" height="33"/>
	<rect x="112.5" y="347.5" transform="matrix(-1.836970e-16 1 -1 -1.836970e-16 488.5 239.5)" class="st0" width="24" height="33"/>
	<rect x="162.5" y="347.5" transform="matrix(-1.836970e-16 1 -1 -1.836970e-16 538.5 189.5)" class="st0" width="24" height="33"/>
	<g>
		<circle class="st3" cx="224.5" cy="364" r="2.5"/>
	</g>
	<rect x="212.5" y="347.5" transform="matrix(-1.836970e-16 1 -1 -1.836970e-16 588.5 139.5)" class="st0" width="24" height="33"/>
	<g>
		<g>
			<g>
				<rect x="139" y="410" class="st5" width="8" height="1"/>
			</g>
			<g>
				<rect x="154" y="410" class="st5" width="8" height="1"/>
			</g>
			<g>
				<circle class="st3" cx="164" cy="410.5" r="1"/>
			</g>
			<g>
				<circle class="st3" cx="137" cy="410.5" r="1"/>
			</g>
		</g>
		<rect x="148" y="408" class="st3" width="5" height="5"/>
		<g>
			<defs>
				<polygon id="SVGID_1_" points="154,412 160,412 166,417 166,423 154,423 				"/>
			</defs>
			<clipPath id="SVGID_00000148633820704695334190000012559237555026447039_">
				<use xlink:href="#SVGID_1_"  style="overflow:visible;"/>
			</clipPath>
			
				<path style="clip-path:url(#SVGID_00000148633820704695334190000012559237555026447039_);fill:none;stroke:#4F4F4F;stroke-width:1.5;stroke-miterlimit:10;" d="
				M163.5,423c0-5.8-4.2-12-13-12c-8.9,0-13,6.2-13,12"/>
		</g>
		<g>
			<defs>
				<polygon id="SVGID_00000114764533836873392850000006141628980339232156_" points="147,412 141,412 135,417 135,423 147,423 				
					"/>
			</defs>
			<clipPath id="SVGID_00000134972733577545756280000011212226747859960501_">
				<use xlink:href="#SVGID_00000114764533836873392850000006141628980339232156_"  style="overflow:visible;"/>
			</clipPath>
			
				<path style="clip-path:url(#SVGID_00000134972733577545756280000011212226747859960501_);fill:none;stroke:#4F4F4F;stroke-width:1.5;stroke-miterlimit:10;" d="
				M137.5,423c0-5.8,4.2-12,13-12c8.9,0,13,6.2,13,12"/>
		</g>
	</g>
	<g>
		<polygon class="st2" points="39,423 38,423 38,422 47,413 47,414 48,414 		"/>
		<rect x="48" y="408" class="st3" width="5" height="5"/>
		<polygon class="st2" points="62,423 63,423 63,422 54,413 54,414 53,414 		"/>
	</g>
	<rect x="39" y="389" transform="matrix(-1.836970e-16 1 -1 -1.836970e-16 465 364)" class="st0" width="23" height="51"/>
	<rect x="139" y="389" transform="matrix(-1.836970e-16 1 -1 -1.836970e-16 565 264)" class="st0" width="23" height="51"/>
	<g>
		<g id="Calque_3_00000164504319737229646750000011018610142313609662_">
			<rect x="248" y="412" class="st8" width="5" height="5"/>
			<rect x="228" y="414" class="st2" width="18" height="1"/>
			<rect x="255" y="414" class="st2" width="18" height="1"/>
		</g>
	</g>
	<rect x="216" y="403" class="st0" width="69" height="23"/>
	<g>
		<defs>
			<polygon id="SVGID_00000101799441582534491980000006165069875638361258_" points="232,413 245,413 245,411 256,411 256,413 
				269,413 269,406 232,406 			"/>
		</defs>
		<clipPath id="SVGID_00000040566103820969303650000015697604319525095318_">
			<use xlink:href="#SVGID_00000101799441582534491980000006165069875638361258_"  style="overflow:visible;"/>
		</clipPath>
		
			<path style="clip-path:url(#SVGID_00000040566103820969303650000015697604319525095318_);fill:none;stroke:#339EFF;stroke-miterlimit:10;" d="
			M260,407.5c-4,0-8,4.8-9.5,6.5c-1.5-1.6-5.5-6.5-9.5-6.5c-3.9,0-7,3.1-7,7s3.1,7,7,7c4,0,8-4.8,9.5-6.5c1.5,1.6,5.5,6.5,9.5,6.5
			c3.9,0,7-3.1,7-7S263.9,407.5,260,407.5z"/>
	</g>
	<g>
		<defs>
			<polygon id="SVGID_00000014620404395335800940000017322836713411751869_" points="269,416 256,416 256,418 245,418 245,416 
				232,416 232,423 269,423 			"/>
		</defs>
		<clipPath id="SVGID_00000127746088670423456190000004100962197516224186_">
			<use xlink:href="#SVGID_00000014620404395335800940000017322836713411751869_"  style="overflow:visible;"/>
		</clipPath>
		
			<path style="clip-path:url(#SVGID_00000127746088670423456190000004100962197516224186_);fill:none;stroke:#3291F0;stroke-miterlimit:10;" d="
			M241,421.5c4,0,8-4.8,9.5-6.5c1.5,1.6,5.5,6.5,9.5,6.5c3.9,0,7-3.1,7-7s-3.1-7-7-7c-4,0-8,4.8-9.5,6.5c-1.5-1.6-5.5-6.5-9.5-6.5
			c-3.9,0-7,3.1-7,7S237.1,421.5,241,421.5z"/>
	</g>
</g>
<g id="keyShift">
	<rect x="128" y="203" class="st0" width="45" height="21"/>
	<rect x="28" y="203" class="st0" width="45" height="21"/>
	<rect x="228" y="203" class="st0" width="45" height="21"/>
	<rect x="328" y="203" class="st0" width="45" height="21"/>
	<rect x="628" y="253" class="st0" width="45" height="21"/>
	<rect x="528" y="253" class="st0" width="45" height="21"/>
	<rect x="728" y="253" class="st0" width="45" height="21"/>
	<rect x="828" y="253" class="st0" width="45" height="21"/>
</g>
<g id="keyStretch">
	<rect x="227" y="151" class="st0" width="46" height="26"/>
	<g>
		<rect x="253" y="145" class="st5" width="1" height="38"/>
		<polygon class="st5" points="252,168 233,168 233,169 252,169 		"/>
		<polygon class="st5" points="267,168 255,168 255,169 267,169 		"/>
	</g>
	<rect x="128" y="151" class="st0" width="45" height="26"/>
	<g>
		<polygon class="st5" points="136,169 136,168 166,168 166,169 		"/>
	</g>
	<rect x="28" y="151" class="st0" width="45" height="26"/>
	<rect x="328" y="151" class="st0" width="43" height="26"/>
	<g>
		<g>
			<polygon class="st5" points="343,164 343,165 356,165 356,164 			"/>
		</g>
	</g>
	<g>
		<polygon class="st5" points="64.5,169 64.5,168 34.5,168 34.5,169 		"/>
	</g>
	<g>
		<polygon class="st1" points="566,119 566,118 533,118 533,119 		"/>
	</g>
	<g>
		<polygon class="st1" points="635,119 635,118 668,118 668,119 		"/>
	</g>
	<g>
		<polygon class="st1" points="769,119 769,118 757,118 757,119 		"/>
	</g>
	<g>
		<polygon class="st1" points="732,119 732,118 754,118 754,119 		"/>
	</g>
</g>
<g id="keyStagger">
	<rect x="425" y="100" class="st0" width="50" height="27"/>
	<g>
		<g>
			<polygon class="st3" points="461,119 460,119 460,118 459,118 459,117 458,117 458,118 457,118 457,119 456,119 456,120 457,120 
				457,121 458,121 458,122 459,122 459,121 460,121 460,120 461,120 			"/>
			<polygon class="st3" points="453,113 452,113 452,112 451,112 451,111 450,111 450,112 449,112 449,113 448,113 448,114 449,114 
				449,115 450,115 450,116 451,116 451,115 452,115 452,114 453,114 			"/>
			<polygon class="st3" points="469,107 468,107 468,106 467,106 467,105 466,105 466,106 465,106 465,107 464,107 464,108 465,108 
				465,109 466,109 466,110 467,110 467,109 468,109 468,108 469,108 			"/>
		</g>
		<g>
			<path class="st5" d="M441,112h-8c-0.6,0-1,0.4-1,1v8h10v-8C442,112.4,441.6,112,441,112z M438,118.5h-2v-4h2V118.5z"/>
		</g>
		<g>
			<path class="st5" d="M441,133.6h-8c-0.6,0-1,0.4-1,1v8h10v-8C442,134,441.6,133.6,441,133.6z M438,140.1h-2v-4h2V140.1z"/>
		</g>
		<g>
			<path class="st5" d="M451.6,133.6h-8c-0.6,0-1,0.4-1,1v8h10v-8C452.6,134,452.2,133.6,451.6,133.6z M448.6,140.1h-2v-4h2V140.1z"
				/>
		</g>
		<g>
			<path class="st1" d="M441,143.3h-8c-0.6,0-1,0.4-1,1v8h10v-8C442,143.7,441.6,143.3,441,143.3z M438,149.8h-2v-4h2V149.8z"/>
		</g>
		<g>
			<path class="st11" d="M451.7,143.3h-8c-0.6,0-1,0.4-1,1v8h10v-8C452.7,143.7,452.3,143.3,451.7,143.3z M448.7,149.8h-2v-4h2
				V149.8z"/>
		</g>
		<path class="st12" d="M439.5,112.8V109c0-1.4-1.1-2.5-2.5-2.5l0,0c-1.4,0-2.5,1.1-2.5,2.5v3.7"/>
	</g>
	<rect x="229" y="100" class="st0" width="43" height="27"/>
	<rect x="29" y="100" class="st0" width="43" height="27"/>
	<rect x="129" y="100" class="st0" width="43" height="27"/>
	<rect x="325" y="100" class="st0" width="50" height="27"/>
	<polygon class="st5" points="338,105 338,104 335,104 334,104 334,123 335,123 338,123 338,122 335,122 335,105 	"/>
	<polygon class="st5" points="366,104 363,104 363,105 366,105 366,122 363,122 363,123 366,123 367,123 367,104 	"/>
	<rect x="220" y="251" class="st0" width="61" height="25"/>
	<rect x="20" y="251" class="st0" width="61" height="25"/>
	<rect x="120" y="251" class="st0" width="61" height="25"/>
</g>
<g id="keyAlign">
	<g>
		<rect x="45" y="62" class="st5" width="1" height="4"/>
		<rect x="45" y="45" class="st5" width="1" height="10"/>
		<rect x="45" y="73" class="st5" width="1" height="10"/>
	</g>
	<rect x="28" y="50" class="st0" width="45" height="28"/>
	<rect x="128" y="50" class="st0" width="44" height="28"/>
	<g>
		<rect x="155" y="62" class="st5" width="1" height="4"/>
		<rect x="155" y="45" class="st5" width="1" height="10"/>
		<rect x="155" y="73" class="st5" width="1" height="10"/>
	</g>
	<rect x="228" y="50" class="st0" width="45" height="28"/>
	<g>
		<polygon class="st5" points="247,56 247,55 246,55 246,58 247,58 247,57 293,57 293,56 		"/>
	</g>
	<rect x="328" y="50" class="st0" width="45" height="28"/>
	<g>
		<polygon class="st5" points="355,57 355,58 356,58 356,55 355,55 355,56 308,56 308,57 		"/>
	</g>
	<rect x="20" y="300" class="st0" width="61" height="28"/>
	<rect x="119.5" y="300" class="st0" width="61" height="28"/>
	<rect x="220" y="300" class="st0" width="61" height="28"/>
</g>
<g id="keyDuplicate">
	<rect x="18" y="1" class="st0" width="64" height="26"/>
	<rect x="118" y="1" class="st0" width="64" height="26"/>
	<g>
		<rect x="57" y="12" class="st5" width="1" height="4"/>
		<rect x="57" y="-5" class="st5" width="1" height="10"/>
		<rect x="57" y="23" class="st5" width="1" height="10"/>
	</g>
	<g>
		<rect x="155" y="-5" class="st5" width="1" height="21"/>
		<rect x="155" y="23" class="st5" width="1" height="10"/>
	</g>
</g>
<g id="_x2D_---_REPERES_VERTICAUX_----">
</g>
<g id="_x2D_---_REPERES_HORIZONTAUX_----">
</g>
<g id="ICONES">
	<g>
		<g>
			<rect x="545" y="206" class="st2" width="3" height="2"/>
		</g>
		<g>
			<rect x="540" y="206" class="st2" width="2" height="2"/>
		</g>
		<g>
			<g>
				<rect x="540" y="211" class="st2" width="2" height="2"/>
			</g>
		</g>
		<g>
			<rect x="540" y="216" class="st2" width="2" height="2"/>
		</g>
		<g>
			<rect x="540" y="221" class="st2" width="2" height="2"/>
		</g>
		<g>
			<g>
				<g>
					<rect x="545" y="211" class="st13" width="7" height="2"/>
				</g>
			</g>
		</g>
		<g>
			<g>
				<g>
					<rect x="545" y="216" class="st3" width="11.5" height="2"/>
				</g>
			</g>
		</g>
		<g>
			<rect x="545" y="221" class="st1" width="17" height="2"/>
		</g>
	</g>
	<g>
		<g>
			<g>
				<g>
					<rect x="645" y="221" class="st2" width="3" height="2"/>
				</g>
			</g>
		</g>
		<g>
			<g>
				<g>
					<rect x="645" y="216" class="st13" width="7" height="2"/>
				</g>
			</g>
		</g>
		<g>
			<g>
				<g>
					<rect x="645" y="211" class="st3" width="12" height="2"/>
				</g>
			</g>
		</g>
		<g>
			<rect x="645" y="206" class="st1" width="17" height="2"/>
		</g>
	</g>
	<g>
		<g>
			<g>
				<rect x="745" y="216" class="st1" width="17" height="2"/>
			</g>
		</g>
		<g>
			<rect x="745" y="211" class="st2" width="3" height="2"/>
		</g>
		<g>
			<g>
				<g>
					<rect x="745" y="206" class="st13" width="7" height="2"/>
				</g>
			</g>
		</g>
		<g>
			<g>
				<g>
					<rect x="745" y="221" class="st3" width="12" height="2"/>
				</g>
			</g>
		</g>
	</g>
	<g>
		<rect x="640" y="206" class="st2" width="2" height="2"/>
	</g>
	<g>
		<rect x="640" y="211" class="st2" width="2" height="2"/>
	</g>
	<g>
		<rect x="640" y="216" class="st2" width="2" height="2"/>
	</g>
	<g>
		<rect x="640" y="221" class="st2" width="2" height="2"/>
	</g>
	<g>
		<rect x="740" y="206" class="st2" width="2" height="2"/>
	</g>
	<g>
		<rect x="740" y="211" class="st2" width="2" height="2"/>
	</g>
	<g>
		<rect x="740" y="216" class="st2" width="2" height="2"/>
	</g>
	<g>
		<g>
			<rect x="740" y="221" class="st2" width="2" height="2"/>
		</g>
	</g>
	<g>
		<polygon class="st5" points="238,8 238,9 260,9 260,12 261,12 261,8 		"/>
		<polygon class="st5" points="239,19 239,16 238,16 238,20 261,20 261,19 		"/>
		<polyline class="st14" points="257.2,23.3 261,19.5 257.2,15.7 		"/>
		<polyline class="st14" points="241.8,4.7 238,8.5 241.8,12.3 		"/>
	</g>
	<polyline class="st14" points="236.3,164.7 232.5,168.5 236.3,172.3 	"/>
	<polyline class="st14" points="263.7,172.3 267.5,168.5 263.7,164.7 	"/>
	<polyline class="st14" points="139.3,164.7 135.5,168.5 139.3,172.3 	"/>
	<polyline class="st14" points="61.2,164.7 65,168.5 61.2,172.3 	"/>
	<polyline class="st14" points="352.7,168.3 356.5,164.5 352.7,160.7 	"/>
	<polyline class="st14" points="346.3,168.3 342.5,164.5 346.3,160.7 	"/>
	<polyline class="st15" points="562.7,114.7 566.5,118.5 562.7,122.3 	"/>
	<polyline class="st15" points="638.3,114.7 634.5,118.5 638.3,122.3 	"/>
	<polyline class="st15" points="765.7,114.7 769.5,118.5 765.7,122.3 	"/>
	<polyline class="st15" points="735.3,114.7 731.5,118.5 735.3,122.3 	"/>
	<polyline class="st16" points="248.5,218.5 253.5,213.5 248.5,208.5 	"/>
	<polyline class="st16" points="152.5,208.5 147.5,213.5 152.5,218.5 	"/>
	<g>
		<polyline class="st16" points="50.5,208.5 45.5,213.5 50.5,218.5 		"/>
		<polyline class="st16" points="56.5,208.5 51.5,213.5 56.5,218.5 		"/>
	</g>
	<g>
		<polyline class="st16" points="350.5,218.5 355.5,213.5 350.5,208.5 		"/>
		<polyline class="st16" points="344.5,218.5 349.5,213.5 344.5,208.5 		"/>
	</g>
	<polyline class="st17" points="748.5,268.5 753.5,263.5 748.5,258.5 	"/>
	<polyline class="st17" points="652.5,258.5 647.5,263.5 652.5,268.5 	"/>
	<g>
		<polyline class="st17" points="550.5,258.5 545.5,263.5 550.5,268.5 		"/>
		<polyline class="st17" points="556.5,258.5 551.5,263.5 556.5,268.5 		"/>
	</g>
	<g>
		<polyline class="st17" points="850.5,268.5 855.5,263.5 850.5,258.5 		"/>
		<polyline class="st17" points="844.5,268.5 849.5,263.5 844.5,258.5 		"/>
	</g>
	<line class="st14" x1="254.5" y1="259.5" x2="258.5" y2="255.5"/>
	<line class="st14" x1="242.5" y1="271.5" x2="246.5" y2="267.5"/>
	<line class="st14" x1="254.5" y1="267.5" x2="258.5" y2="271.5"/>
	<line class="st14" x1="242.5" y1="255.5" x2="246.5" y2="259.5"/>
	<g>
		<polygon class="st2" points="138,305 138,318 141,318 141,317 139,317 139,306 150,306 150,308 151,308 151,305 		"/>
	</g>
	<g>
		<g>
			<path class="st5" d="M143,310v13h13v-13H143z M153,319.8l-6.8-6.8h6.8V319.8z"/>
		</g>
	</g>
	<g>
		<g>
			<g>
				<polygon class="st2" points="41,305 41,318 44,318 44,317 42,317 42,306 53,306 53,308 54,308 54,305 				"/>
			</g>
		</g>
		<path class="st5" d="M58,311v11H47v-11H58 M59,310H46v13h13V310L59,310z"/>
		<polygon class="st5" points="49.2,319 55,313.2 55,319 		"/>
	</g>
	<g>
		<g>
			<path class="st2" d="M235,305v13h13v-13H235z M247,317h-11v-11h11V317z"/>
		</g>
	</g>
	<g>
		<g>
			<path class="st5" d="M252,310v13h13v-13H252z M262,319.8l-6.8-6.8h6.8V319.8z"/>
		</g>
	</g>
</g>
<g id="FONDS_BOUTONS">
</g>
<g id="ICONES_KEYS">
	
		<rect x="43.6" y="56.6" transform="matrix(0.7071 -0.7071 0.7071 0.7071 -28.0392 49.3085)" class="st3" width="3.9" height="3.9"/>
	
		<rect x="43.6" y="67.6" transform="matrix(0.7071 -0.7071 0.7071 0.7071 -35.8175 52.5305)" class="st3" width="3.9" height="3.9"/>
	
		<rect x="54.6" y="67.6" transform="matrix(0.7071 -0.7071 0.7071 0.7071 -32.5956 60.3087)" class="st3" width="3.9" height="3.9"/>
	
		<rect x="153.6" y="56.6" transform="matrix(0.7071 -0.7071 0.7071 0.7071 4.1783 127.0874)" class="st3" width="3.9" height="3.9"/>
	
		<rect x="153.6" y="67.6" transform="matrix(0.7071 -0.7071 0.7071 0.7071 -3.5998 130.3091)" class="st3" width="3.9" height="3.9"/>
	
		<rect x="142.6" y="67.6" transform="matrix(0.7071 -0.7071 0.7071 0.7071 -6.8215 122.5311)" class="st3" width="3.9" height="3.9"/>
	<rect x="163.6" y="6.6" transform="matrix(0.7071 -0.7071 0.7071 0.7071 42.462 119.5142)" class="st3" width="3.9" height="3.9"/>
	
		<rect x="163.6" y="17.6" transform="matrix(0.7071 -0.7071 0.7071 0.7071 34.6839 122.7359)" class="st3" width="3.9" height="3.9"/>
	
		<rect x="153.6" y="17.6" transform="matrix(0.7071 -0.7071 0.7071 0.7071 31.7551 115.6649)" class="st3" width="3.9" height="3.9"/>
	<path class="st2" d="M133.1,8.3l-2.4-2.4c-0.1-0.1-0.3-0.1-0.4,0l-2.4,2.4c-0.1,0.1-0.1,0.3,0,0.4l2.4,2.4c0.1,0.1,0.3,0.1,0.4,0
		l2.4-2.4C133.2,8.6,133.2,8.4,133.1,8.3z"/>
	<path class="st2" d="M133.1,19.3l-2.4-2.4c-0.1-0.1-0.3-0.1-0.4,0l-2.4,2.4c-0.1,0.1-0.1,0.3,0,0.4l2.4,2.4c0.1,0.1,0.3,0.1,0.4,0
		l2.4-2.4C133.2,19.6,133.2,19.4,133.1,19.3z"/>
	<path class="st2" d="M143.1,19.3l-2.4-2.4c-0.1-0.1-0.3-0.1-0.4,0l-2.4,2.4c-0.1,0.1-0.1,0.3,0,0.4l2.4,2.4c0.1,0.1,0.3,0.1,0.4,0
		l2.4-2.4C143.2,19.6,143.2,19.4,143.1,19.3z"/>
	<rect x="55.6" y="6.6" transform="matrix(0.7071 -0.7071 0.7071 0.7071 10.8314 43.1488)" class="st3" width="3.9" height="3.9"/>
	<rect x="55.6" y="17.6" transform="matrix(0.7071 -0.7071 0.7071 0.7071 3.0531 46.3707)" class="st3" width="3.9" height="3.9"/>
	<rect x="65.6" y="17.6" transform="matrix(0.7071 -0.7071 0.7071 0.7071 5.9822 53.4419)" class="st3" width="3.9" height="3.9"/>
	<rect x="30.6" y="6.6" transform="matrix(0.7071 -0.7071 0.7071 0.7071 3.5089 25.4709)" class="st2" width="3.9" height="3.9"/>
	<rect x="30.6" y="17.6" transform="matrix(0.7071 -0.7071 0.7071 0.7071 -4.2694 28.6929)" class="st2" width="3.9" height="3.9"/>
	<rect x="40.6" y="17.6" transform="matrix(0.7071 -0.7071 0.7071 0.7071 -1.3404 35.764)" class="st2" width="3.9" height="3.9"/>
	
		<rect x="244.6" y="61.6" transform="matrix(0.7071 -0.7071 0.7071 0.7071 27.2986 192.9033)" class="st3" width="3.9" height="3.9"/>
	
		<rect x="244.6" y="70.6" transform="matrix(0.7071 -0.7071 0.7071 0.7071 20.9345 195.5395)" class="st3" width="3.9" height="3.9"/>
	
		<rect x="255.6" y="70.6" transform="matrix(0.7071 -0.7071 0.7071 0.7071 24.1565 203.3177)" class="st3" width="3.9" height="3.9"/>
	
		<rect x="341.6" y="61.6" transform="matrix(0.7071 -0.7071 0.7071 0.7071 55.7101 261.4936)" class="st3" width="3.9" height="3.9"/>
	
		<rect x="341.6" y="70.6" transform="matrix(0.7071 -0.7071 0.7071 0.7071 49.3461 264.1297)" class="st3" width="3.9" height="3.9"/>
	<rect x="352.6" y="70.6" transform="matrix(0.7071 -0.7071 0.7071 0.7071 52.568 271.908)" class="st3" width="3.9" height="3.9"/>
	
		<rect x="38.6" y="105.6" transform="matrix(0.7071 -0.7071 0.7071 0.7071 -64.1524 60.1252)" class="st3" width="3.9" height="3.9"/>
	
		<rect x="48.6" y="111.6" transform="matrix(0.7071 -0.7071 0.7071 0.7071 -65.4661 68.9538)" class="st3" width="3.9" height="3.9"/>
	
		<rect x="58.6" y="117.6" transform="matrix(0.7071 -0.7071 0.7071 0.7071 -66.7797 77.7823)" class="st3" width="3.9" height="3.9"/>
	
		<rect x="158.6" y="105.6" transform="matrix(0.7071 -0.7071 0.7071 0.7071 -29.0051 144.9742)" class="st3" width="3.9" height="3.9"/>
	
		<rect x="148.6" y="111.6" transform="matrix(0.7071 -0.7071 0.7071 0.7071 -36.1765 139.6606)" class="st3" width="3.9" height="3.9"/>
	
		<rect x="138.6" y="117.6" transform="matrix(0.7071 -0.7071 0.7071 0.7071 -43.3479 134.3469)" class="st3" width="3.9" height="3.9"/>
	
		<rect x="259.6" y="105.6" transform="matrix(0.7071 -0.7071 0.7071 0.7071 0.5762 216.3911)" class="st3" width="3.9" height="3.9"/>
	
		<rect x="239.6" y="111.6" transform="matrix(0.7071 -0.7071 0.7071 0.7071 -9.524 204.0064)" class="st3" width="3.9" height="3.9"/>
	
		<rect x="249.6" y="117.6" transform="matrix(0.7071 -0.7071 0.7071 0.7071 -10.8378 212.8347)" class="st3" width="3.9" height="3.9"/>
	
		<rect x="356.6" y="105.6" transform="matrix(0.7071 -0.7071 0.7071 0.7071 28.986 284.9796)" class="st3" width="3.9" height="3.9"/>
	
		<rect x="340.6" y="111.6" transform="matrix(0.7071 -0.7071 0.7071 0.7071 20.0573 275.4233)" class="st3" width="3.9" height="3.9"/>
	
		<rect x="348.6" y="117.6" transform="matrix(0.7071 -0.7071 0.7071 0.7071 18.1577 282.8374)" class="st3" width="3.9" height="3.9"/>
	
		<rect x="360.6" y="162.6" transform="matrix(0.7071 -0.7071 0.7071 0.7071 -10.147 304.5023)" class="st3" width="3.9" height="3.9"/>
	
		<rect x="334.6" y="162.6" transform="matrix(0.7071 -0.7071 0.7071 0.7071 -17.762 286.1178)" class="st3" width="3.9" height="3.9"/>
	
		<rect x="259.6" y="157.6" transform="matrix(0.7071 -0.7071 0.7071 0.7071 -36.1929 231.6211)" class="st3" width="3.9" height="3.9"/>
	
		<rect x="236.6" y="157.6" transform="matrix(0.7071 -0.7071 0.7071 0.7071 -42.9292 215.3578)" class="st3" width="3.9" height="3.9"/>
	
		<rect x="243.6" y="157.6" transform="matrix(0.7071 -0.7071 0.7071 0.7071 -40.879 220.3075)" class="st3" width="3.9" height="3.9"/>
	
		<rect x="160.6" y="157.6" transform="matrix(0.7071 -0.7071 0.7071 0.7071 -65.1884 161.6184)" class="st3" width="3.9" height="3.9"/>
	
		<rect x="139.6" y="157.6" transform="matrix(0.7071 -0.7071 0.7071 0.7071 -71.339 146.7693)" class="st3" width="3.9" height="3.9"/>
	
		<rect x="146.6" y="157.6" transform="matrix(0.7071 -0.7071 0.7071 0.7071 -69.2888 151.719)" class="st3" width="3.9" height="3.9"/>
	
		<rect x="56.6" y="157.6" transform="matrix(0.7071 -0.7071 0.7071 0.7071 -95.6483 88.0802)" class="st3" width="3.9" height="3.9"/>
	
		<rect x="35.6" y="157.6" transform="matrix(0.7071 -0.7071 0.7071 0.7071 -101.7989 73.2312)" class="st3" width="3.9" height="3.9"/>
	
		<rect x="42.6" y="157.6" transform="matrix(0.7071 -0.7071 0.7071 0.7071 -99.7487 78.1809)" class="st3" width="3.9" height="3.9"/>
	
		<rect x="538.6" y="169.6" transform="matrix(0.7071 -0.7071 0.7071 0.7071 37.0367 432.416)" class="st3" width="3.9" height="3.9"/>
	
		<rect x="558.6" y="169.6" transform="matrix(0.7071 -0.7071 0.7071 0.7071 42.8943 446.5579)" class="st3" width="3.9" height="3.9"/>
	
		<rect x="638.6" y="169.6" transform="matrix(0.7071 -0.7071 0.7071 0.7071 66.3251 503.1257)" class="st3" width="3.9" height="3.9"/>
	
		<rect x="658.6" y="169.6" transform="matrix(0.7071 -0.7071 0.7071 0.7071 72.1828 517.2677)" class="st3" width="3.9" height="3.9"/>
	
		<rect x="738.6" y="169.6" transform="matrix(0.7071 -0.7071 0.7071 0.7071 95.6135 573.8355)" class="st3" width="3.9" height="3.9"/>
	
		<rect x="758.6" y="169.6" transform="matrix(0.7071 -0.7071 0.7071 0.7071 101.4712 587.9774)" class="st3" width="3.9" height="3.9"/>
	
		<rect x="48.6" y="261.6" transform="matrix(0.7071 -0.7071 0.7071 0.7071 -171.5334 112.8891)" class="st3" width="3.9" height="3.9"/>
	<rect x="150" y="259" transform="matrix(-1.836970e-16 1 -1 -1.836970e-16 414 113)" class="st5" width="1" height="9"/>
	<path class="st18" d="M163,263.5c4.4,0,7.5-3.6,7.5-8V251"/>
	<path class="st18" d="M138,263.5c-4.4,0-7.5,3.6-7.5,8v4.5"/>
	<g>
		<rect x="50" y="267" class="st2" width="1" height="9"/>
		<rect x="50" y="251" class="st2" width="1" height="9"/>
		<rect x="60.5" y="259.5" transform="matrix(-1.455210e-11 1 -1 -1.455210e-11 324.5 202.5)" class="st5" width="1" height="8"/>
		<rect x="39.5" y="259.5" transform="matrix(1.000450e-11 -1 1 1.000450e-11 -223.5 303.5)" class="st5" width="1" height="8"/>
		<polyline class="st14" points="40.6,267.3 44.4,263.5 40.6,259.7 		"/>
		<polyline class="st14" points="60.4,259.7 56.6,263.5 60.4,267.3 		"/>
	</g>
	
		<rect x="157.1" y="261.6" transform="matrix(0.7071 -0.7071 0.7071 0.7071 -139.7526 189.6073)" class="st3" width="3.9" height="3.9"/>
	
		<rect x="140.1" y="261.6" transform="matrix(0.7071 -0.7071 0.7071 0.7071 -144.7318 177.5865)" class="st3" width="3.9" height="3.9"/>
	
		<rect x="235.6" y="261.6" transform="matrix(0.7071 -0.7071 0.7071 0.7071 -116.7605 245.1152)" class="st3" width="3.9" height="3.9"/>
	
		<rect x="261.6" y="261.6" transform="matrix(0.7071 -0.7071 0.7071 0.7071 -109.1453 263.5)" class="st3" width="3.9" height="3.9"/>
	
		<rect x="248" y="261" transform="matrix(0.7071 -0.7071 0.7071 0.7071 -112.9529 254.3076)" class="st19" width="4.9" height="4.9"/>
</g>
</svg>
